<?xml version="1.0" encoding="utf-8"?>
<!-- Generator: Adobe Illustrator 26.3.1, SVG Export Plug-In . SVG Version: 6.00 Build 0)  -->
<svg version="1.1" id="Layer_1" xmlns="http://www.w3.org/2000/svg" xmlns:xlink="http://www.w3.org/1999/xlink" x="0px" y="0px"
	 viewBox="0 0 26.7 24.4" style="enable-background:new 0 0 26.7 24.4;" xml:space="preserve">
<style type="text/css">
	.st0{fill:#FFFFFF;}
</style>
<path class="st0" d="M8.8,18l4.5-4.5l4.5,4.5l1.3-1.3l-4.5-4.5l4.5-4.5l-1.3-1.3L13.3,11L8.8,6.5L7.6,7.7l4.5,4.5l-4.5,4.5L8.8,18z
	 M13.3,24.2c-1.6,0-3.2-0.3-4.6-0.9c-1.5-0.6-2.7-1.5-3.8-2.6s-2-2.4-2.6-3.8s-0.9-3-0.9-4.6c0-1.7,0.3-3.2,0.9-4.7s1.5-2.7,2.6-3.8
	s2.4-1.9,3.8-2.6s3-0.9,4.6-0.9c1.7,0,3.2,0.3,4.7,0.9c1.5,0.6,2.7,1.5,3.8,2.6s1.9,2.4,2.6,3.8c0.6,1.5,0.9,3,0.9,4.7
	c0,1.6-0.3,3.2-0.9,4.6c-0.6,1.5-1.5,2.7-2.6,3.8s-2.4,1.9-3.8,2.6C16.5,23.9,15,24.2,13.3,24.2z M13.3,22.4c2.8,0,5.3-1,7.2-3
	s3-4.4,3-7.2c0-2.8-1-5.2-3-7.2s-4.4-3-7.2-3c-2.8,0-5.2,1-7.2,3s-3,4.4-3,7.2c0,2.8,1,5.2,3,7.2S10.5,22.4,13.3,22.4z"/>
</svg>
