<?xml version="1.0" encoding="utf-8"?>
<!-- Generator: Adobe Illustrator 26.3.1, SVG Export Plug-In . SVG Version: 6.00 Build 0)  -->
<svg version="1.1" id="Layer_1" xmlns="http://www.w3.org/2000/svg" xmlns:xlink="http://www.w3.org/1999/xlink" x="0px" y="0px"
	 viewBox="0 0 14 14" style="enable-background:new 0 0 14 14;" xml:space="preserve">
<style type="text/css">
	.st0{fill:#FFFFFF;fill-opacity:0.35;}
</style>
<path class="st0" d="M8.3,1.3C8.3,0.6,7.7,0,7,0C6.3,0,5.7,0.6,5.7,1.3c0,0.7,0.6,1.3,1.3,1.3C7.7,2.6,8.3,2.1,8.3,1.3z M7,11.4
	c-0.7,0-1.3,0.6-1.3,1.3C5.7,13.4,6.3,14,7,14c0.7,0,1.3-0.6,1.3-1.3C8.3,12,7.7,11.4,7,11.4z M12.7,5.7c-0.7,0-1.3,0.6-1.3,1.3
	c0,0.7,0.6,1.3,1.3,1.3C13.4,8.3,14,7.7,14,7C14,6.3,13.4,5.7,12.7,5.7z M2.6,7c0-0.7-0.6-1.3-1.3-1.3C0.6,5.7,0,6.3,0,7
	c0,0.7,0.6,1.3,1.3,1.3C2,8.3,2.6,7.7,2.6,7z M3,9.7c-0.7,0-1.3,0.6-1.3,1.3c0,0.7,0.6,1.3,1.3,1.3c0.7,0,1.3-0.6,1.3-1.3
	C4.3,10.3,3.7,9.7,3,9.7z M11,9.7c-0.7,0-1.3,0.6-1.3,1.3c0,0.7,0.6,1.3,1.3,1.3c0.7,0,1.3-0.6,1.3-1.3C12.3,10.3,11.7,9.7,11,9.7z
	 M3,1.7C2.2,1.7,1.6,2.3,1.6,3c0,0.7,0.6,1.3,1.3,1.3c0.7,0,1.3-0.6,1.3-1.3C4.3,2.3,3.7,1.7,3,1.7z"/>
</svg>
